<?xml version="1.0" standalone="no"?>
<!DOCTYPE svg PUBLIC "-//W3C//DTD SVG 20010904//EN"
 "http://www.w3.org/TR/2001/REC-SVG-20010904/DTD/svg10.dtd">
<svg version="1.0" xmlns="http://www.w3.org/2000/svg"
 width="512.000000pt" height="512.000000pt" viewBox="0 0 512.000000 512.000000"
 preserveAspectRatio="xMidYMid meet">
<metadata>
Created by potrace 1.11, written by Peter Selinger 2001-2013
</metadata>
<g transform="translate(0.000000,512.000000) scale(0.100000,-0.100000)"
fill="#000000" stroke="none">
<path d="M3050 4033 c-14 -9 -26 -17 -28 -18 -2 -2 -28 -67 -58 -146 -30 -79
-72 -189 -94 -244 -21 -55 -73 -190 -115 -300 -42 -110 -87 -227 -100 -260
-13 -33 -49 -127 -80 -210 -31 -82 -60 -159 -65 -170 -5 -11 -26 -63 -46 -115
-20 -52 -51 -133 -69 -180 -18 -47 -104 -269 -191 -495 -86 -225 -173 -450
-192 -500 -89 -230 -92 -254 -37 -302 58 -51 143 -20 174 62 11 27 58 151 106
275 48 124 94 241 101 260 7 19 97 253 199 520 103 267 198 512 210 545 12 33
120 312 238 621 202 523 216 564 206 597 -19 69 -101 100 -159 60z"/>
<path d="M1465 3966 c-45 -21 -1362 -1345 -1370 -1378 -4 -15 -2 -42 4 -60 8
-24 204 -226 684 -706 370 -369 677 -672 682 -673 6 0 19 -2 30 -4 11 -3 34 0
52 6 39 12 75 79 66 122 -4 19 -187 209 -635 657 l-630 630 622 623 c360 359
628 635 635 652 34 87 -54 170 -140 131z"/>
<path d="M3580 3972 c-43 -19 -79 -67 -74 -99 1 -7 2 -21 3 -32 0 -10 279
-296 632 -650 l631 -631 -617 -618 c-340 -339 -624 -627 -632 -639 -18 -27
-20 -77 -4 -107 14 -25 58 -53 81 -51 8 1 26 3 40 3 18 2 192 169 693 670 368
367 675 680 684 696 36 68 56 44 -676 778 -372 373 -684 678 -692 679 -8 0
-23 2 -34 4 -11 2 -27 0 -35 -3z"/>
</g>
</svg>
